<?xml version="1.0" encoding="utf-8"?>
<!-- Generator: Adobe Illustrator 16.0.0, SVG Export Plug-In . SVG Version: 6.00 Build 0)  -->
<!DOCTYPE svg PUBLIC "-//W3C//DTD SVG 1.1//EN" "http://www.w3.org/Graphics/SVG/1.1/DTD/svg11.dtd">
<svg version="1.1" id="Layer_1" xmlns="http://www.w3.org/2000/svg" xmlns:xlink="http://www.w3.org/1999/xlink" x="0px" y="0px"
     width="1446px" height="390px" viewBox="0 0 1446 390" enable-background="new 0 0 1446 390" xml:space="preserve">
<g>
	<path fill="#67AE44" d="M124.878,72.987c-14.493,0-28.306,2.915-40.888,8.178l0.274-0.425V54.434
		c0-14.973-3.909-26.283-11.724-33.946c-7.815-7.643-18.237-11.477-31.25-11.477H18.824v172.835l0.067-0.105
		c1.438,57.321,48.315,103.357,105.987,103.357c58.577,0,106.06-47.483,106.06-106.056S183.456,72.987,124.878,72.987z
		 M124.878,231.236c-21.887,0-41.71-17.872-40.563-41.095c1.113-22.583,26.26-48.988,40.563-63.297
		c14.419,14.55,39.449,40.715,40.568,63.297C166.598,213.364,146.606,231.236,124.878,231.236z"/>
    <path fill="#67AE44" d="M418.026,217.618c-9.194,3.681-18.512,6.437-27.965,8.271c-9.454,1.841-17.99,2.759-25.604,2.759
		c-11.817,0-21.338-2.229-28.558-6.698c-7.226-4.462-12.278-12.073-15.165-22.843h119.743c0.524-3.676,1.114-8.335,1.773-13.985
		c0.651-5.645,0.984-12.014,0.984-19.104c0-13.651-2.036-26.324-6.105-38.011c-4.075-11.682-9.916-21.666-17.529-29.936
		c-7.618-8.272-16.876-14.771-27.769-19.499c-10.9-4.725-23.308-7.089-37.223-7.089c-16.809,0-31.512,2.824-44.117,8.467
		c-12.604,5.65-23.109,13.331-31.51,23.043c-8.408,9.72-14.711,21.14-18.908,34.269c-4.203,13.134-6.303,27.179-6.303,42.147
		c0,15.231,2.031,29.282,6.106,42.147c4.067,12.867,10.37,23.965,18.907,33.282c8.529,9.325,19.559,16.612,33.086,21.862
		c13.521,5.248,29.74,7.879,48.646,7.879c24.421,0,48.313-4.334,71.688-13.001c-0.264-10.239-1.771-20.087-4.529-29.541
		C424.92,232.585,421.701,224.449,418.026,217.618z M330.582,129.385c6.038-5.25,13.257-7.878,21.664-7.878
		c9.712,0,17.134,3.091,22.256,9.258c5.12,6.173,7.939,13.854,8.468,23.041h-63.023C320.993,142.777,324.539,134.64,330.582,129.385
		z"/>
    <path fill="#67AE44" d="M655.935,161.684c0-19.429-2.951-35.055-8.861-46.872c-5.906-11.817-13.529-20.876-22.846-27.18
		c-9.324-6.3-19.763-10.437-31.315-12.406c-11.559-1.97-23.109-2.956-34.662-2.956c-19.695,0-36.108,1.514-49.237,4.531
		c-13.134,3.022-24.292,6.105-33.48,9.256v193.401c6.825,1.313,12.999,2.167,18.513,2.563c5.514,0.394,10.5,0.591,14.968,0.591
		c4.198,0,9.061-0.197,14.574-0.591c5.515-0.396,11.682-1.25,18.515-2.563V132.144c0.787-0.523,2.818-1.048,6.104-1.576
		c3.281-0.525,6.365-0.789,9.257-0.789c10.765,0,18.772,3.022,24.028,9.06c5.25,6.044,7.878,16.02,7.878,29.938v110.682
		c6.823,1.313,13.001,2.167,18.513,2.563c5.517,0.394,10.5,0.591,14.967,0.591c4.201,0,9.063-0.197,14.574-0.591
		c5.516-0.396,11.684-1.25,18.512-2.563V161.684z"/>
    <path fill="#67AE44" d="M852.483,217.618c-9.193,3.681-18.512,6.437-27.965,8.271c-9.455,1.841-17.99,2.759-25.605,2.759
		c-11.816,0-21.336-2.229-28.557-6.698c-7.225-4.462-12.277-12.073-15.164-22.843h119.744c0.521-3.676,1.113-8.335,1.771-13.985
		c0.652-5.645,0.986-12.014,0.986-19.104c0-13.651-2.039-26.324-6.105-38.011c-4.076-11.682-9.916-21.666-17.529-29.936
		c-7.621-8.272-16.877-14.771-27.77-19.499c-10.9-4.725-23.307-7.089-37.225-7.089c-16.807,0-31.51,2.824-44.115,8.467
		c-12.605,5.65-23.111,13.331-31.512,23.043c-8.406,9.72-14.709,21.14-18.906,34.269c-4.203,13.134-6.301,27.179-6.301,42.147
		c0,15.231,2.031,29.282,6.104,42.147c4.07,12.867,10.369,23.965,18.906,33.282c8.531,9.325,19.561,16.612,33.088,21.862
		c13.521,5.248,29.738,7.879,48.645,7.879c24.422,0,48.316-4.334,71.691-13.001c-0.266-10.239-1.771-20.087-4.529-29.541
		C859.376,232.585,856.159,224.449,852.483,217.618z M765.038,129.385c6.037-5.25,13.258-7.878,21.666-7.878
		c9.713,0,17.135,3.091,22.254,9.258c5.119,6.173,7.941,13.854,8.471,23.041h-63.023C755.45,142.777,758.995,134.64,765.038,129.385
		z"/>
    <path fill="#67AE44" d="M1132.937,168.776v110.682c6.824,1.313,12.998,2.167,18.512,2.563c5.514,0.394,10.502,0.591,14.967,0.591
		c4.199,0,9.063-0.197,14.576-0.591c5.514-0.396,11.682-1.25,18.514-2.563V161.684c0-19.429-2.826-35.055-8.471-46.872
		c-5.65-11.817-12.867-20.876-21.662-27.18c-8.803-6.3-18.648-10.437-29.543-12.406c-10.898-1.97-21.467-2.956-31.709-2.956
		c-11.559,0-21.928,1.319-31.117,3.939c-9.195,2.627-17.201,5.65-24.027,9.059c-8.932-5.248-18.648-8.726-29.15-10.437
		c-10.506-1.706-21.141-2.562-31.904-2.562c-19.693,0-35.98,1.514-48.842,4.531c-12.871,3.022-23.898,6.105-33.088,9.256v193.401
		c6.824,1.313,13,2.167,18.514,2.563c5.516,0.394,10.498,0.591,14.969,0.591c4.197,0,9.059-0.197,14.572-0.591
		c5.516-0.396,11.682-1.25,18.512-2.563V132.144c0.791-0.523,2.822-1.048,6.107-1.576c3.281-0.525,6.365-0.789,9.256-0.789
		c10.764,0,18.379,3.022,22.846,9.06c4.463,6.044,6.699,16.02,6.699,29.938v110.682c6.824,1.313,12.996,2.167,18.512,2.563
		c5.514,0.394,10.498,0.591,14.967,0.591c4.197,0,9.059-0.197,14.572-0.591c5.516-0.396,11.684-1.25,18.516-2.563V164.442
		c0-11.817-1.184-22.318-3.547-31.513c1.313-0.522,3.742-1.181,7.289-1.969c3.545-0.787,7.15-1.181,10.832-1.181
		c10.764,0,18.512,3.022,23.24,9.06C1130.571,144.882,1132.937,154.858,1132.937,168.776z"/>
    <path fill="#67AE44" d="M136.956,203.982c0.273,0.868,0.527,1.706,0.832,2.492c0.653,1.528,1.566,2.764,2.364,3.86
		c0.95,1.021,1.876,1.854,2.667,2.548c0.789,0.635,1.589,1.001,2.21,1.383c1.268,0.72,2.074,1.061,2.074,1.061
		s-0.182-0.856-0.647-2.229c-0.237-0.672-0.525-1.49-0.857-2.428c-0.207-0.914-0.41-1.893-0.688-2.85
		c-0.115-1.022-0.34-2.085-0.354-3.123c0.045-0.521,0.032-1.027,0.033-1.533c0.087-0.5,0.177-1.01,0.268-1.529
		c0.245-1.04,0.55-2.077,1.03-3.301c0.182-0.58,0.482-1.212,0.746-1.889l0.834-2.068c0.539-1.422,1.133-3.031,1.559-4.66
		c0.455-1.67,0.74-3.383,0.814-5.12c0.157-1.69-0.115-3.401-0.307-4.92c-0.421-1.511-0.74-2.935-1.314-4.124
		c-0.588-1.188-1.199-2.22-1.735-3.104c-0.589-0.858-1.248-1.524-1.735-2.077c-1.004-1.099-1.658-1.634-1.658-1.634
		s-0.074,0.904-0.063,2.325c0.003,0.71,0.017,1.557,0.058,2.479c-0.071,0.95-0.157,1.984-0.173,3.053
		c-0.036,1.073-0.317,2.195-0.399,3.327c-0.301,1.132-0.443,2.27-0.853,3.435c-0.22,0.578-0.351,1.165-0.554,1.762
		c-0.258,0.604-0.49,1.214-0.699,1.836c-0.539,1.332-1.086,2.684-1.633,4.036l-0.822,2.274c-0.291,0.769-0.513,1.581-0.725,2.482
		c-0.218,0.873-0.437,1.703-0.492,2.682c-0.057,0.958-0.264,1.826-0.118,2.802C136.715,202.179,136.75,203.108,136.956,203.982z"/>
    <path fill="#67AE44" d="M123.862,171.063c0.004,0.71,0.017,1.557,0.059,2.479c-0.072,0.95-0.158,1.984-0.173,3.053
		c-0.034,1.073-0.316,2.197-0.398,3.327c-0.301,1.132-0.442,2.27-0.853,3.435c-0.218,0.578-0.348,1.165-0.553,1.762
		c-0.257,0.604-0.49,1.214-0.699,1.836c-0.539,1.332-1.087,2.681-1.633,4.034l-0.822,2.274c-0.293,0.769-0.513,1.583-0.725,2.481
		c-0.219,0.873-0.438,1.706-0.495,2.685c-0.055,0.955-0.264,1.823-0.116,2.8c0.098,0.947,0.132,1.877,0.338,2.753
		c0.273,0.865,0.526,1.706,0.832,2.489c0.652,1.531,1.564,2.764,2.363,3.863c0.951,1.019,1.876,1.854,2.668,2.548
		c0.788,0.635,1.587,1.001,2.209,1.383c1.268,0.72,2.074,1.061,2.074,1.061s-0.182-0.856-0.646-2.229
		c-0.237-0.672-0.527-1.49-0.858-2.428c-0.208-0.914-0.409-1.893-0.688-2.85c-0.114-1.022-0.339-2.085-0.354-3.123
		c0.045-0.521,0.032-1.027,0.033-1.533c0.087-0.5,0.177-1.01,0.269-1.529c0.245-1.04,0.549-2.077,1.031-3.301
		c0.18-0.577,0.481-1.212,0.745-1.889l0.833-2.068c0.54-1.422,1.135-3.031,1.563-4.66c0.454-1.672,0.736-3.386,0.813-5.12
		c0.156-1.69-0.117-3.404-0.307-4.92c-0.422-1.511-0.742-2.935-1.316-4.126c-0.589-1.188-1.199-2.221-1.736-3.104
		c-0.59-0.855-1.248-1.521-1.734-2.077c-1.006-1.096-1.66-1.631-1.66-1.631S123.85,169.642,123.862,171.063z"/>
    <path fill="#67AE44" d="M109.891,175.55c-0.589-1.188-1.199-2.221-1.736-3.104c-0.589-0.855-1.247-1.521-1.734-2.077
		c-1.006-1.096-1.66-1.631-1.66-1.631s-0.074,0.904-0.063,2.325c0.004,0.71,0.018,1.557,0.059,2.479
		c-0.072,0.95-0.156,1.984-0.172,3.053c-0.035,1.073-0.316,2.197-0.398,3.327c-0.302,1.132-0.443,2.27-0.854,3.435
		c-0.218,0.578-0.349,1.165-0.553,1.762c-0.257,0.604-0.492,1.214-0.7,1.836c-0.538,1.329-1.086,2.681-1.633,4.034l-0.823,2.274
		c-0.291,0.769-0.512,1.583-0.725,2.481c-0.218,0.873-0.438,1.703-0.494,2.685c-0.057,0.955-0.264,1.823-0.118,2.8
		c0.101,0.947,0.133,1.877,0.338,2.753c0.274,0.868,0.528,1.706,0.833,2.489c0.652,1.531,1.564,2.767,2.365,3.865
		c0.949,1.02,1.874,1.852,2.666,2.546c0.789,0.635,1.589,1.004,2.21,1.385c1.267,0.718,2.075,1.059,2.075,1.059
		s-0.183-0.856-0.646-2.229c-0.238-0.672-0.528-1.49-0.859-2.428c-0.209-0.914-0.409-1.893-0.688-2.85
		c-0.114-1.022-0.339-2.085-0.354-3.12c0.045-0.524,0.032-1.03,0.033-1.536c0.088-0.5,0.178-1.01,0.269-1.527
		c0.245-1.042,0.55-2.079,1.032-3.301c0.182-0.579,0.482-1.214,0.746-1.891l0.834-2.068c0.539-1.422,1.134-3.031,1.561-4.66
		c0.455-1.67,0.74-3.383,0.816-5.12c0.155-1.69-0.117-3.401-0.309-4.92C110.787,178.166,110.466,176.741,109.891,175.55z"/>
    <path fill="#7F7F7F" d="M1242.313,257.163c-4.424,0-7.805,1.199-10.141,3.596c-2.336,2.397-3.504,5.84-3.504,10.327
		c0,4.426,1.168,7.898,3.504,10.419s5.717,3.78,10.141,3.78c4.426,0,7.822-1.275,10.189-3.827c2.367-2.551,3.551-6.008,3.551-10.372
		c0-4.303-1.17-7.699-3.504-10.188C1250.214,258.407,1246.802,257.163,1242.313,257.163z"/>
    <path fill="#7F7F7F" d="M1351.761,282.611h21.76v-66.479c0-24.895-12.232-37.342-36.697-37.342c-6.885,0-13.154,1.321-18.809,3.965
		c-5.656,2.643-10.02,6.393-13.094,11.248h-1.105l-3.045-13.369h-16.965v101.977h21.668v-50.804c0-12.725,2.121-21.791,6.361-27.2
		c4.242-5.409,10.943-8.114,20.102-8.114c6.885,0,11.908,1.937,15.074,5.809c3.166,3.873,4.75,9.744,4.75,17.611V282.611z"/>
    <rect x="1403.671" y="139.143" fill="#7F7F7F" width="21.668" height="143.468"/>
    <rect x="27.613" y="315.538" fill="#7F7F7F" width="10.384" height="48.973"/>
    <path fill="#7F7F7F" d="M70.788,326.359c-2.545,0-4.816,0.464-6.816,1.391c-1.997,0.927-3.566,2.295-4.705,4.103h-0.569
		l-1.374-4.789h-7.805v37.447h10.217v-17.618c0-4.421,0.637-7.586,1.91-9.497c1.272-1.908,3.337-2.864,6.197-2.864
		c2.098,0,3.627,0.677,4.588,2.027c0.959,1.352,1.44,3.377,1.44,6.079v21.873h10.216v-24.418c0-4.444-1.127-7.843-3.383-10.199
		C78.448,327.538,75.143,326.359,70.788,326.359z"/>
    <path fill="#7F7F7F" d="M116.745,345.051c-1.362-1.026-3.506-2.134-6.432-3.316c-3.282-1.316-5.409-2.313-6.381-2.981
		c-0.971-0.671-1.457-1.462-1.457-2.379c0-1.629,1.508-2.443,4.521-2.443c1.697,0,3.361,0.256,4.991,0.768
		c1.63,0.516,3.384,1.174,5.259,1.978l3.082-7.368c-4.266-1.965-8.653-2.948-13.164-2.948c-4.734,0-8.391,0.909-10.971,2.73
		c-2.578,1.82-3.868,4.392-3.868,7.719c0,1.944,0.308,3.581,0.922,4.908c0.614,1.328,1.596,2.507,2.946,3.534
		c1.352,1.027,3.469,2.145,6.348,3.351c2.01,0.847,3.618,1.59,4.824,2.228c1.205,0.635,2.055,1.204,2.545,1.709
		c0.492,0.502,0.738,1.154,0.738,1.958c0,2.145-1.855,3.214-5.561,3.214c-1.809,0-3.902-0.302-6.28-0.902
		c-2.378-0.602-4.517-1.352-6.415-2.244v8.439c1.676,0.717,3.473,1.257,5.393,1.625c1.92,0.369,4.242,0.554,6.967,0.554
		c5.314,0,9.307-1.006,11.975-3.014c2.669-2.012,4.004-4.937,4.004-8.777c0-1.854-0.324-3.45-0.973-4.789
		C119.11,347.262,118.106,346.078,116.745,345.051z"/>
    <path fill="#7F7F7F" d="M141.247,356.002c-0.815-0.69-1.223-1.764-1.223-3.214v-18.054h10.484v-7.671h-10.484v-7.973h-6.532
		l-2.946,7.903l-5.629,3.417v4.323h4.891v18.054c0,4.132,0.933,7.228,2.797,9.295c1.865,2.064,4.841,3.099,8.928,3.099
		c3.705,0,6.833-0.571,9.379-1.708v-7.604c-2.502,0.781-4.645,1.174-6.432,1.174C143.139,357.043,142.061,356.694,141.247,356.002z"
    />
    <path fill="#7F7F7F" d="M173.822,326.292c-5.247,0-10.026,1.127-14.336,3.385l3.382,6.899c4.041-1.809,7.56-2.716,10.553-2.716
		c3.885,0,5.828,1.901,5.828,5.696v1.643l-6.499,0.2c-5.604,0.201-9.798,1.244-12.577,3.131c-2.781,1.889-4.172,4.818-4.172,8.793
		c0,3.796,1.034,6.722,3.1,8.775c2.065,2.057,4.896,3.083,8.491,3.083c2.925,0,5.297-0.419,7.118-1.258
		c1.819-0.837,3.59-2.337,5.309-4.504h0.269l1.976,5.091h7.134v-24.954c0-4.466-1.339-7.793-4.019-9.983
		C182.698,327.387,178.845,326.292,173.822,326.292z M179.249,350.242c0,2.254-0.711,4.065-2.128,5.425
		c-1.419,1.362-3.311,2.043-5.677,2.043c-3.305,0-4.959-1.438-4.959-4.319c0-2.011,0.727-3.507,2.179-4.487
		c1.451-0.984,3.661-1.52,6.63-1.609l3.955-0.133V350.242z"/>
    <rect x="199.915" y="312.394" fill="#7F7F7F" width="10.216" height="52.117"/>
    <rect x="220.85" y="312.394" fill="#7F7F7F" width="10.216" height="52.117"/>
    <path fill="#7F7F7F" d="M257.126,326.292c-5.248,0-10.027,1.127-14.337,3.385l3.383,6.899c4.041-1.809,7.559-2.716,10.551-2.716
		c3.887,0,5.829,1.901,5.829,5.696v1.643l-6.498,0.2c-5.604,0.201-9.798,1.244-12.577,3.131c-2.781,1.889-4.172,4.818-4.172,8.793
		c0,3.796,1.033,6.722,3.1,8.775c2.064,2.057,4.895,3.083,8.491,3.083c2.925,0,5.297-0.419,7.117-1.258
		c1.82-0.837,3.59-2.337,5.31-4.504h0.268l1.977,5.091h7.134v-24.954c0-4.466-1.339-7.793-4.019-9.983
		C266.002,327.387,262.15,326.292,257.126,326.292z M262.552,350.242c0,2.254-0.71,4.065-2.128,5.425
		c-1.418,1.362-3.31,2.043-5.676,2.043c-3.305,0-4.959-1.438-4.959-4.319c0-2.011,0.727-3.507,2.179-4.487
		c1.45-0.984,3.661-1.52,6.63-1.609l3.954-0.133V350.242z"/>
    <path fill="#7F7F7F" d="M295.763,356.002c-0.815-0.69-1.224-1.764-1.224-3.214v-18.054h10.484v-7.671H294.54v-7.973h-6.531
		l-2.947,7.903l-5.628,3.417v4.323h4.891v18.054c0,4.132,0.933,7.228,2.797,9.295c1.864,2.064,4.841,3.099,8.927,3.099
		c3.707,0,6.834-0.571,9.379-1.708v-7.604c-2.5,0.781-4.645,1.174-6.431,1.174C297.655,357.043,296.578,356.694,295.763,356.002z"/>
    <path fill="#7F7F7F" d="M318.122,312.394c-3.707,0-5.561,1.661-5.561,4.988c0,3.351,1.854,5.025,5.561,5.025
		c1.853,0,3.244-0.44,4.169-1.324c0.928-0.881,1.392-2.115,1.392-3.701C323.682,314.055,321.828,312.394,318.122,312.394z"/>
    <rect x="312.997" y="327.063" fill="#7F7F7F" width="10.217" height="37.447"/>
    <path fill="#7F7F7F" d="M349.374,326.359c-5.539,0-9.876,1.714-13.014,5.141c-3.138,3.429-4.706,8.28-4.706,14.555
		c0,6.096,1.696,10.809,5.091,14.136c3.396,3.326,8.106,4.991,14.136,4.991c2.925,0,5.404-0.218,7.437-0.652
		c2.031-0.436,3.94-1.102,5.729-1.996v-7.904c-2.19,1.028-4.287,1.775-6.299,2.244c-2.01,0.47-4.143,0.704-6.396,0.704
		c-2.904,0-5.159-0.813-6.767-2.444c-1.608-1.63-2.468-3.896-2.579-6.801h24.149v-4.956c0-5.314-1.472-9.479-4.42-12.493
		C358.786,327.865,354.667,326.359,349.374,326.359z M342.239,341.532c0.178-2.523,0.881-4.472,2.11-5.845
		c1.228-1.373,2.925-2.06,5.091-2.06s3.887,0.687,5.158,2.06c1.273,1.373,1.933,3.321,1.977,5.845H342.239z"/>
    <path fill="#7F7F7F" d="M418.442,326.359c-2.457,0-4.662,0.481-6.616,1.438c-1.954,0.962-3.433,2.313-4.437,4.055h-0.906
		c-1.988-3.662-5.783-5.493-11.389-5.493c-2.456,0-4.633,0.486-6.531,1.457c-1.898,0.972-3.35,2.318-4.354,4.036h-0.57l-1.373-4.789
		h-7.805v37.447h10.217v-17.618c0-4.399,0.592-7.558,1.775-9.479c1.183-1.922,3.08-2.883,5.694-2.883
		c1.942,0,3.366,0.677,4.27,2.027c0.905,1.352,1.357,3.377,1.357,6.079v21.873h10.217v-18.792c0-3.885,0.618-6.72,1.858-8.507
		c1.238-1.786,3.109-2.681,5.61-2.681c1.942,0,3.366,0.677,4.271,2.027c0.905,1.352,1.357,3.377,1.357,6.079v21.873h10.248v-24.418
		c0-4.8-1.088-8.291-3.266-10.468C425.894,327.448,422.684,326.359,418.442,326.359z"/>
    <path fill="#7F7F7F" d="M457.163,326.292c-5.248,0-10.027,1.127-14.336,3.385l3.382,6.899c4.042-1.809,7.56-2.716,10.552-2.716
		c3.886,0,5.828,1.901,5.828,5.696v1.643l-6.498,0.2c-5.604,0.201-9.797,1.244-12.578,3.131c-2.779,1.889-4.17,4.818-4.17,8.793
		c0,3.796,1.033,6.722,3.099,8.775c2.065,2.057,4.896,3.083,8.491,3.083c2.926,0,5.297-0.419,7.118-1.258
		c1.819-0.837,3.59-2.337,5.31-4.504h0.268l1.976,5.091h7.134v-24.954c0-4.466-1.339-7.793-4.018-9.983
		C466.039,327.387,462.186,326.292,457.163,326.292z M462.588,350.242c0,2.254-0.709,4.065-2.127,5.425
		c-1.418,1.362-3.311,2.043-5.677,2.043c-3.306,0-4.958-1.438-4.958-4.319c0-2.011,0.727-3.507,2.178-4.487
		c1.451-0.984,3.661-1.52,6.631-1.609l3.953-0.133V350.242z"/>
    <path fill="#7F7F7F" d="M495.799,356.002c-0.814-0.69-1.223-1.764-1.223-3.214v-18.054h10.484v-7.671h-10.484v-7.973h-6.532
		l-2.946,7.903l-5.629,3.417v4.323h4.891v18.054c0,4.132,0.933,7.228,2.797,9.295c1.865,2.064,4.841,3.099,8.928,3.099
		c3.706,0,6.833-0.571,9.379-1.708v-7.604c-2.502,0.781-4.645,1.174-6.431,1.174C497.692,357.043,496.614,356.694,495.799,356.002z"
    />
    <path fill="#7F7F7F" d="M528.475,326.359c-5.539,0-9.877,1.714-13.014,5.141c-3.139,3.429-4.707,8.28-4.707,14.555
		c0,6.096,1.697,10.809,5.092,14.136c3.395,3.326,8.107,4.991,14.135,4.991c2.926,0,5.404-0.218,7.438-0.652
		c2.031-0.436,3.939-1.102,5.728-1.996v-7.904c-2.189,1.028-4.287,1.775-6.298,2.244c-2.009,0.47-4.143,0.704-6.397,0.704
		c-2.903,0-5.158-0.813-6.767-2.444c-1.607-1.63-2.467-3.896-2.578-6.801h24.15v-4.956c0-5.314-1.474-9.479-4.422-12.493
		C537.887,327.865,533.767,326.359,528.475,326.359z M521.34,341.532c0.178-2.523,0.881-4.472,2.11-5.845
		c1.227-1.373,2.925-2.06,5.091-2.06s3.887,0.687,5.158,2.06c1.272,1.373,1.932,3.321,1.977,5.845H521.34z"/>
    <path fill="#7F7F7F" d="M568.015,328.286c-1.976,1.283-3.544,2.976-4.704,5.072h-0.504l-1.507-6.295h-7.737v37.447h10.217v-19.058
		c0-3.018,0.909-5.36,2.729-7.035c1.82-1.676,4.36-2.514,7.621-2.514c1.183,0,2.188,0.113,3.014,0.337l0.771-9.58
		c-0.917-0.202-2.065-0.302-3.449-0.302C572.141,326.359,569.993,327.002,568.015,328.286z"/>
    <rect x="584.713" y="327.063" fill="#7F7F7F" width="10.217" height="37.447"/>
    <path fill="#7F7F7F" d="M589.838,312.394c-3.707,0-5.561,1.661-5.561,4.988c0,3.351,1.854,5.025,5.561,5.025
		c1.854,0,3.244-0.44,4.17-1.324c0.927-0.881,1.391-2.115,1.391-3.701C595.399,314.055,593.544,312.394,589.838,312.394z"/>
    <path fill="#7F7F7F" d="M620.989,326.292c-5.249,0-10.026,1.127-14.335,3.385l3.382,6.899c4.043-1.809,7.56-2.716,10.551-2.716
		c3.887,0,5.83,1.901,5.83,5.696v1.643l-6.498,0.2c-5.607,0.201-9.798,1.244-12.579,3.131c-2.779,1.889-4.171,4.818-4.171,8.793
		c0,3.796,1.033,6.722,3.099,8.775c2.066,2.057,4.896,3.083,8.492,3.083c2.926,0,5.297-0.419,7.118-1.258
		c1.818-0.837,3.588-2.337,5.309-4.504h0.268l1.977,5.091h7.137v-24.954c0-4.466-1.34-7.793-4.021-9.983
		C629.866,327.387,626.015,326.292,620.989,326.292z M626.417,350.242c0,2.254-0.711,4.065-2.127,5.425
		c-1.418,1.362-3.311,2.043-5.678,2.043c-3.307,0-4.958-1.438-4.958-4.319c0-2.011,0.725-3.507,2.177-4.487
		c1.452-0.984,3.663-1.52,6.635-1.609l3.951-0.133V350.242z"/>
    <path fill="#7F7F7F" d="M662.425,326.292c-5.248,0-10.027,1.127-14.336,3.385l3.383,6.899c4.043-1.809,7.559-2.716,10.551-2.716
		c3.885,0,5.83,1.901,5.83,5.696v1.643l-6.498,0.2c-5.607,0.201-9.801,1.244-12.578,3.131c-2.781,1.889-4.17,4.818-4.17,8.793
		c0,3.796,1.031,6.722,3.096,8.775c2.068,2.057,4.896,3.083,8.494,3.083c2.924,0,5.295-0.419,7.117-1.258
		c1.818-0.837,3.588-2.337,5.309-4.504h0.268l1.977,5.091h7.135v-24.954c0-4.466-1.338-7.793-4.02-9.983
		C671.302,327.387,667.45,326.292,662.425,326.292z M667.853,350.242c0,2.254-0.711,4.065-2.127,5.425
		c-1.418,1.362-3.311,2.043-5.678,2.043c-3.307,0-4.959-1.438-4.959-4.319c0-2.011,0.725-3.507,2.178-4.487
		c1.451-0.984,3.662-1.52,6.633-1.609l3.953-0.133V350.242z"/>
    <rect x="688.521" y="312.394" fill="#7F7F7F" width="10.215" height="52.117"/>
    <path fill="#7F7F7F" d="M745.028,336.241c-3.463-1.652-5.654-2.797-6.582-3.433c-0.928-0.638-1.604-1.297-2.027-1.978
		s-0.637-1.48-0.637-2.395c0-1.476,0.525-2.669,1.576-3.585c1.049-0.915,2.555-1.373,4.523-1.373c1.65,0,3.33,0.212,5.039,0.637
		c1.709,0.423,3.867,1.171,6.48,2.244l3.35-8.073c-2.523-1.094-4.939-1.941-7.25-2.546c-2.314-0.602-4.74-0.903-7.287-0.903
		c-5.18,0-9.238,1.239-12.176,3.719c-2.936,2.479-4.402,5.883-4.402,10.217c0,2.299,0.445,4.307,1.338,6.028
		c0.891,1.719,2.088,3.227,3.584,4.521c1.496,1.296,3.738,2.646,6.732,4.054c3.195,1.52,5.311,2.623,6.348,3.313
		c1.039,0.694,1.826,1.414,2.361,2.162s0.805,1.604,0.805,2.562c0,1.722-0.611,3.015-1.826,3.888
		c-1.217,0.871-2.963,1.306-5.24,1.306c-1.9,0-3.992-0.301-6.283-0.906c-2.287-0.602-5.084-1.639-8.391-3.114v9.647
		c4.021,1.966,8.645,2.948,13.869,2.948c5.67,0,10.1-1.272,13.279-3.817c3.184-2.547,4.775-6.03,4.775-10.453
		c0-3.19-0.852-5.889-2.547-8.089C752.741,340.622,749.604,338.43,745.028,336.241z"/>
    <path fill="#7F7F7F" d="M780.397,326.292c-5.246,0-10.025,1.127-14.334,3.385l3.383,6.899c4.041-1.809,7.559-2.716,10.551-2.716
		c3.885,0,5.828,1.901,5.828,5.696v1.643l-6.496,0.2c-5.607,0.201-9.799,1.244-12.578,3.131c-2.783,1.889-4.17,4.818-4.17,8.793
		c0,3.796,1.031,6.722,3.096,8.775c2.066,2.057,4.896,3.083,8.494,3.083c2.924,0,5.295-0.419,7.115-1.258
		c1.82-0.837,3.59-2.337,5.311-4.504h0.268l1.977,5.091h7.135v-24.954c0-4.466-1.338-7.793-4.021-9.983
		C789.276,327.387,785.423,326.292,780.397,326.292z M785.825,350.242c0,2.254-0.709,4.065-2.125,5.425
		c-1.42,1.362-3.313,2.043-5.678,2.043c-3.307,0-4.959-1.438-4.959-4.319c0-2.011,0.725-3.507,2.176-4.487
		c1.453-0.984,3.664-1.52,6.635-1.609l3.951-0.133V350.242z"/>
    <path fill="#7F7F7F" d="M827.763,326.359c-2.545,0-4.816,0.464-6.814,1.391c-2.002,0.927-3.568,2.295-4.707,4.103h-0.57
		l-1.373-4.789h-7.803v37.447h10.213v-17.618c0-4.421,0.639-7.586,1.912-9.497c1.273-1.908,3.336-2.864,6.195-2.864
		c2.1,0,3.629,0.677,4.588,2.027c0.961,1.352,1.441,3.377,1.441,6.079v21.873h10.217v-24.418c0-4.444-1.127-7.843-3.385-10.199
		C835.423,327.538,832.118,326.359,827.763,326.359z"/>
    <rect x="851.579" y="327.063" fill="#7F7F7F" width="10.215" height="37.447"/>
    <path fill="#7F7F7F" d="M856.702,312.394c-3.707,0-5.561,1.661-5.561,4.988c0,3.351,1.854,5.025,5.561,5.025
		c1.854,0,3.244-0.44,4.172-1.324c0.924-0.881,1.389-2.115,1.389-3.701C862.263,314.055,860.411,312.394,856.702,312.394z"/>
    <path fill="#7F7F7F" d="M885.058,356.002c-0.814-0.69-1.223-1.764-1.223-3.214v-18.054h10.484v-7.671h-10.484v-7.973h-6.531
		l-2.947,7.903l-5.627,3.417v4.323h4.889v18.054c0,4.132,0.934,7.228,2.797,9.295c1.865,2.064,4.842,3.099,8.926,3.099
		c3.709,0,6.834-0.571,9.379-1.708v-7.604c-2.5,0.781-4.643,1.174-6.43,1.174C886.95,357.043,885.872,356.694,885.058,356.002z"/>
    <path fill="#7F7F7F" d="M917.63,326.292c-5.246,0-10.025,1.127-14.334,3.385l3.383,6.899c4.041-1.809,7.559-2.716,10.549-2.716
		c3.887,0,5.83,1.901,5.83,5.696v1.643l-6.498,0.2c-5.607,0.201-9.799,1.244-12.576,3.131c-2.783,1.889-4.17,4.818-4.17,8.793
		c0,3.796,1.031,6.722,3.096,8.775c2.066,2.057,4.896,3.083,8.492,3.083c2.926,0,5.297-0.419,7.117-1.258
		c1.82-0.837,3.588-2.337,5.311-4.504h0.266l1.979,5.091h7.135v-24.954c0-4.466-1.34-7.793-4.021-9.983
		C926.507,327.387,922.655,326.292,917.63,326.292z M923.058,350.242c0,2.254-0.709,4.065-2.125,5.425
		c-1.42,1.362-3.313,2.043-5.68,2.043c-3.307,0-4.957-1.438-4.957-4.319c0-2.011,0.725-3.507,2.176-4.487
		c1.453-0.984,3.664-1.52,6.635-1.609l3.951-0.133V350.242z"/>
    <rect x="943.726" y="327.063" fill="#7F7F7F" width="10.215" height="37.447"/>
    <path fill="#7F7F7F" d="M948.849,312.394c-3.705,0-5.561,1.661-5.561,4.988c0,3.351,1.855,5.025,5.561,5.025
		c1.855,0,3.246-0.44,4.172-1.324c0.926-0.881,1.389-2.115,1.389-3.701C954.409,314.055,952.558,312.394,948.849,312.394z"/>
    <path fill="#7F7F7F" d="M979.116,328.286c-1.979,1.283-3.549,2.976-4.709,5.072h-0.502l-1.506-6.295h-7.736v37.447h10.213v-19.058
		c0-3.018,0.912-5.36,2.73-7.035c1.82-1.676,4.359-2.514,7.619-2.514c1.188,0,2.191,0.113,3.018,0.337l0.768-9.58
		c-0.914-0.202-2.064-0.302-3.449-0.302C983.239,326.359,981.089,327.002,979.116,328.286z"/>
    <path fill="#7F7F7F" d="M1033.095,344.682c-1.43,5.136-2.268,8.731-2.514,10.786c-0.133-0.895-0.473-2.484-1.021-4.774
		c-0.547-2.286-1.078-4.292-1.59-6.012l-9.213-29.144h-10.482l16.615,48.973h11.32l16.646-48.973h-10.482L1033.095,344.682z"/>
    <path fill="#7F7F7F" d="M1073.659,326.359c-5.539,0-9.877,1.714-13.014,5.141c-3.137,3.429-4.707,8.28-4.707,14.555
		c0,6.096,1.697,10.809,5.092,14.136c3.393,3.326,8.105,4.991,14.135,4.991c2.924,0,5.404-0.218,7.436-0.652
		c2.033-0.436,3.941-1.102,5.73-1.996v-7.904c-2.191,1.028-4.289,1.775-6.299,2.244c-2.01,0.47-4.141,0.704-6.398,0.704
		c-2.9,0-5.158-0.813-6.766-2.444c-1.607-1.63-2.469-3.896-2.58-6.801h24.152v-4.956c0-5.314-1.475-9.479-4.424-12.493
		C1083.071,327.865,1078.95,326.359,1073.659,326.359z M1066.522,341.532c0.182-2.523,0.881-4.472,2.111-5.845
		c1.229-1.373,2.926-2.06,5.092-2.06c2.164,0,3.885,0.687,5.158,2.06s1.932,3.321,1.975,5.845H1066.522z"/>
    <path fill="#7F7F7F" d="M1113.202,328.286c-1.979,1.283-3.547,2.976-4.709,5.072h-0.502l-1.506-6.295h-7.736v37.447h10.215v-19.058
		c0-3.018,0.91-5.36,2.73-7.035c1.818-1.676,4.357-2.514,7.617-2.514c1.188,0,2.191,0.113,3.018,0.337l0.77-9.58
		c-0.916-0.202-2.064-0.302-3.451-0.302C1117.325,326.359,1115.177,327.002,1113.202,328.286z"/>
    <path fill="#7F7F7F" d="M1168.085,343.642c-0.225,0.984-0.594,2.877-1.105,5.679c-0.516,2.803-0.871,5.007-1.07,6.616h-0.203
		c-0.023-0.625-0.104-1.458-0.25-2.494c-0.146-1.041-0.309-2.101-0.486-3.185c-0.18-1.083-0.361-2.103-0.553-3.063
		c-0.189-0.96-0.328-1.688-0.418-2.176l-4.389-17.955h-11.254l-4.621,17.955l-0.537,2.845c-0.693,3.685-1.082,6.375-1.172,8.073
		h-0.203c-0.715-5.226-1.416-9.323-2.109-12.295l-4.322-16.578h-10.182l10.65,37.447h10.988l6.834-29.643h0.234l3.887,16.545
		l2.877,13.098h11.121l10.785-37.447h-10.014L1168.085,343.642z"/>
    <path fill="#7F7F7F" d="M1203.958,326.292c-5.248,0-10.027,1.127-14.334,3.385l3.383,6.899c4.041-1.809,7.559-2.716,10.549-2.716
		c3.887,0,5.83,1.901,5.83,5.696v1.643l-6.498,0.2c-5.607,0.201-9.799,1.244-12.578,3.131c-2.781,1.889-4.17,4.818-4.17,8.793
		c0,3.796,1.031,6.722,3.098,8.775c2.066,2.057,4.896,3.083,8.492,3.083c2.926,0,5.297-0.419,7.117-1.258
		c1.818-0.837,3.588-2.337,5.309-4.504h0.268l1.977,5.091h7.137v-24.954c0-4.466-1.342-7.793-4.021-9.983
		C1212.835,327.387,1208.983,326.292,1203.958,326.292z M1209.386,350.242c0,2.254-0.709,4.065-2.127,5.425
		c-1.418,1.362-3.311,2.043-5.678,2.043c-3.307,0-4.959-1.438-4.959-4.319c0-2.011,0.725-3.507,2.178-4.487
		c1.451-0.984,3.662-1.52,6.635-1.609l3.951-0.133V350.242z"/>
    <path fill="#7F7F7F" d="M1244.507,328.286c-1.977,1.283-3.547,2.976-4.707,5.072h-0.502l-1.506-6.295h-7.738v37.447h10.215v-19.058
		c0-3.018,0.912-5.36,2.73-7.035c1.82-1.676,4.357-2.514,7.619-2.514c1.186,0,2.189,0.113,3.016,0.337l0.77-9.58
		c-0.914-0.202-2.064-0.302-3.449-0.302C1248.63,326.359,1246.481,327.002,1244.507,328.286z"/>
    <path fill="#7F7F7F" d="M1305.185,326.359c-2.455,0-4.662,0.481-6.615,1.438c-1.955,0.962-3.432,2.313-4.439,4.055h-0.904
		c-1.986-3.662-5.783-5.493-11.387-5.493c-2.459,0-4.635,0.486-6.533,1.457c-1.898,0.972-3.348,2.318-4.354,4.036h-0.568
		l-1.373-4.789h-7.805v37.447h10.215v-17.618c0-4.399,0.592-7.558,1.773-9.479c1.186-1.922,3.084-2.883,5.697-2.883
		c1.941,0,3.365,0.677,4.27,2.027c0.904,1.352,1.357,3.377,1.357,6.079v21.873h10.217v-18.792c0-3.885,0.619-6.72,1.859-8.507
		c1.236-1.786,3.109-2.681,5.609-2.681c1.943,0,3.367,0.677,4.271,2.027c0.904,1.352,1.355,3.377,1.355,6.079v21.873h10.25v-24.418
		c0-4.8-1.09-8.291-3.268-10.468C1312.638,327.448,1309.429,326.359,1305.185,326.359z"/>
    <path fill="#7F7F7F" d="M1333.688,312.394c-3.705,0-5.561,1.661-5.561,4.988c0,3.351,1.855,5.025,5.561,5.025
		c1.854,0,3.244-0.44,4.172-1.324c0.926-0.881,1.389-2.115,1.389-3.701C1339.249,314.055,1337.397,312.394,1333.688,312.394z"/>
    <rect x="1328.565" y="327.063" fill="#7F7F7F" width="10.215" height="37.447"/>
    <path fill="#7F7F7F" d="M1370.769,326.359c-2.545,0-4.816,0.464-6.814,1.391c-2,0.927-3.566,2.295-4.707,4.103h-0.57l-1.371-4.789
		h-7.805v37.447h10.215v-17.618c0-4.421,0.637-7.586,1.91-9.497c1.273-1.908,3.336-2.864,6.195-2.864
		c2.102,0,3.629,0.677,4.59,2.027c0.961,1.352,1.439,3.377,1.439,6.079v21.873h10.217v-24.418c0-4.444-1.127-7.843-3.385-10.199
		C1378.429,327.538,1375.124,326.359,1370.769,326.359z"/>
    <path fill="#7F7F7F" d="M1427.177,327.063h-13.064c-0.402-0.089-1.324-0.23-2.764-0.42s-2.684-0.284-3.734-0.284
		c-4.936,0-8.73,1.117-11.389,3.351c-2.656,2.232-3.986,5.391-3.986,9.479c0,2.546,0.574,4.757,1.727,6.631
		c1.15,1.877,2.707,3.24,4.672,4.088c-1.563,0.916-2.758,1.847-3.582,2.797c-0.828,0.95-1.24,2.139-1.24,3.567
		c0,1.137,0.389,2.216,1.17,3.232c0.783,1.017,1.699,1.747,2.748,2.192c-2.725,0.648-4.789,1.731-6.197,3.25
		c-1.406,1.519-2.111,3.404-2.111,5.661c0,3.282,1.381,5.833,4.139,7.654c2.758,1.819,6.75,2.728,11.975,2.728
		c6.832,0,12.076-1.203,15.725-3.616c3.652-2.412,5.48-5.806,5.48-10.184c0-3.416-1.08-6.006-3.234-7.77
		c-2.156-1.766-5.287-2.646-9.396-2.646h-6.363c-3.752,0-5.627-0.737-5.627-2.21c0-0.984,0.523-1.877,1.574-2.679l1.506,0.167
		l1.844,0.099c4.98,0,8.871-1.121,11.672-3.366c2.801-2.242,4.205-5.375,4.205-9.396c0-2.074-0.537-3.951-1.607-5.626l5.861-1.506
		V327.063z M1404.87,364.979h5.291c2.566,0,4.467,0.27,5.693,0.805c1.229,0.534,1.842,1.506,1.842,2.915
		c0,1.741-1.037,3.113-3.115,4.118c-2.076,1.006-4.945,1.508-8.607,1.508c-2.434,0-4.326-0.402-5.68-1.206
		c-1.348-0.804-2.025-1.908-2.025-3.316c0-1.452,0.631-2.617,1.893-3.499C1401.421,365.42,1402.993,364.979,1404.87,364.979z
		 M1411.835,344.144c-0.893,1.187-2.299,1.778-4.221,1.778c-1.896,0-3.313-0.592-4.234-1.778c-0.928-1.183-1.391-2.789-1.391-4.821
		c0-4.511,1.873-6.768,5.625-6.768c3.707,0,5.561,2.257,5.561,6.768C1413.175,341.354,1412.728,342.961,1411.835,344.144z"/>
</g>
</svg>
